# File created by Blade
# Date/Time:  Tue Apr 07 20:13:55 2015
# Frame Rate: 120.000 fps
#------------------------------------------------------
:FULLY-SPECIFIED
:DEGREES
2214
root 3.502071 33.258757 -10.781294 -14.754061 0.687107 -29.218833
Spine 25.027117 -14.791475 24.369738
Head -21.568434 3.066404 -2.160148
LeftShoulder 4.746112 27.707186 32.697768
LeftArm 80.096814 18.270087 -64.466477
LeftForeArm -43.824392 -0.000000 75.793342
LeftHand 6.583955 -0.000000 -17.930151
LeftHandThumb1 -26.253704 0.000000 33.147579
RightShoulder 6.523248 1.207403 -8.108258
RightArm 31.385081 -18.968581 62.330164
RightForeArm 20.383127 -0.000000 39.424410
RightHand 12.701418 -0.000000 14.367428
RightHandThumb1 -24.326973 -0.000000 -32.862282
LeftUpLeg 1.983715 4.640454 24.353665
LeftLeg 22.351758 -0.000000 -0.000000
LeftFoot -15.987330 25.388849 -4.841586
LeftToeBase -13.492132 -0.000000 0.000000
RightUpLeg -119.890388 -5.808798 11.188319
RightLeg 127.380970 -0.000000 -0.000000
RightFoot 45.053865 4.686493 -0.351453
RightToeBase 37.336066 -0.000000 -0.000000
2215
root 3.530697 33.257633 -10.798304 -14.529175 0.503168 -29.192944
Spine 24.987728 -14.582335 24.704393
Head -21.937729 3.033770 -2.573096
LeftShoulder 4.714025 27.732765 32.585027
LeftArm 80.165023 18.425823 -64.365076
LeftForeArm -44.226998 -0.000000 75.630784
LeftHand 6.564760 -0.000000 -17.905778
LeftHandThumb1 -26.253704 0.000000 33.147579
RightShoulder 6.651627 1.082560 -8.032956
RightArm 31.785811 -19.575894 62.014384
RightForeArm 19.862547 0.000000 39.132585
RightHand 12.603318 -0.000000 14.850107
RightHandThumb1 -24.326973 -0.000000 -32.862282
LeftUpLeg 1.854245 4.773650 24.295949
LeftLeg 22.338474 -0.000000 -0.000000
LeftFoot -15.960312 25.419720 -4.875736
LeftToeBase -13.539797 -0.000000 0.000000
RightUpLeg -119.761988 -5.768069 11.118720
RightLeg 127.777506 -0.000000 -0.000000
RightFoot 45.078965 5.088955 -0.580289
RightToeBase 37.828235 -0.000000 -0.000000
2216
root 3.557976 33.258924 -10.813712 -14.329497 0.350614 -29.186192
Spine 24.956640 -14.402337 25.038638
Head -22.272161 2.957671 -2.964368
LeftShoulder 4.716189 27.684974 32.500888
LeftArm 80.151692 18.573179 -64.354784
LeftForeArm -44.664920 -0.000000 75.427006
LeftHand 6.511443 -0.000000 -18.258923
LeftHandThumb1 -26.253704 0.000000 33.147579
RightShoulder 6.687236 1.019355 -7.996564
RightArm 32.119136 -20.415449 61.624669
RightForeArm 19.706346 -0.000000 38.927112
RightHand 12.554812 -0.000000 14.973611
RightHandThumb1 -24.326973 -0.000000 -32.862282
LeftUpLeg 1.725986 4.912690 24.267740
LeftLeg 22.342377 -0.000000 -0.000000
LeftFoot -15.928970 25.380846 -4.942654
LeftToeBase -13.575506 -0.000000 0.000000
RightUpLeg -119.619043 -5.695904 11.128573
RightLeg 128.217836 -0.000000 -0.000000
RightFoot 44.989880 5.488479 -0.765252
RightToeBase 38.073011 -0.000000 -0.000000
2217
root 3.591949 33.258922 -10.821967 -14.186037 0.266748 -29.074753
Spine 24.946100 -14.256762 25.230896
Head -22.578356 2.839604 -3.317349
LeftShoulder 4.767649 27.576779 32.452289
LeftArm 80.057039 18.752954 -64.378626
LeftForeArm -44.717997 -0.000000 75.270457
LeftHand 6.544323 -0.000000 -18.059628
LeftHandThumb1 -26.253704 0.000000 33.147579
RightShoulder 6.630538 0.889423 -8.030875
RightArm 32.386284 -21.403381 61.223307
RightForeArm 21.235931 0.000000 38.860114
RightHand 12.466606 0.000000 13.951805
RightHandThumb1 -24.326973 -0.000000 -32.862282
LeftUpLeg 1.651753 4.974475 24.107477
LeftLeg 22.318823 -0.000000 -0.000000
LeftFoot -15.895720 25.363173 -5.038740
LeftToeBase -13.697265 -0.000000 0.000000
RightUpLeg -119.476840 -5.612161 11.156586
RightLeg 128.713734 -0.000000 -0.000000
RightFoot 44.937550 6.474984 -1.527915
RightToeBase 37.844299 -0.000000 -0.000000
2218
root 3.612276 33.259104 -10.836454 -13.927175 0.242548 -29.084356
Spine 24.767602 -14.156848 25.510379
Head -22.791307 2.786515 -3.592293
LeftShoulder 4.817405 27.563392 32.454696
LeftArm 79.970809 18.868803 -64.440730
LeftForeArm -45.014474 -0.000000 75.119693
LeftHand 6.470025 -0.000000 -18.133322
LeftHandThumb1 -26.253704 0.000000 33.147579
RightShoulder 6.574610 0.709613 -8.098644
RightArm 32.408876 -21.882158 61.250852
RightForeArm 22.878105 -0.000000 38.677541
RightHand 12.997417 0.000000 13.201585
RightHandThumb1 -24.326973 -0.000000 -32.862282
LeftUpLeg 1.372315 5.100431 24.082072
LeftLeg 22.378825 -0.000000 -0.000000
LeftFoot -15.874333 25.283834 -5.060309
LeftToeBase -13.728999 -0.000000 0.000000
RightUpLeg -119.478861 -5.456215 11.405520
RightLeg 129.190173 -0.000000 -0.000000
RightFoot 44.861769 6.722531 -1.371996
RightToeBase 38.084763 -0.000000 -0.000000
2219
root 3.638370 33.254299 -10.847567 -13.704620 0.308964 -28.933391
Spine 24.608534 -14.147960 25.556664
Head -22.988025 2.733284 -3.834978
LeftShoulder 4.834648 27.664081 32.436024
LeftArm 79.908575 18.924727 -64.446009
LeftForeArm -45.081998 -0.000000 75.052326
LeftHand 6.411234 -0.000000 -18.091301
LeftHandThumb1 -26.253704 0.000000 33.147579
RightShoulder 6.531486 0.537486 -8.132106
RightArm 32.046290 -21.794195 61.729521
RightForeArm 22.665921 0.000000 38.788166
RightHand 13.592269 -0.000000 12.939084
RightHandThumb1 -24.326973 -0.000000 -32.862282
LeftUpLeg 1.121762 5.157455 23.845373
LeftLeg 22.381847 -0.000000 -0.000000
LeftFoot -15.741546 25.352661 -4.932804
LeftToeBase -13.915992 -0.000000 0.000000
RightUpLeg -119.522720 -5.327550 11.525752
RightLeg 129.676686 -0.000000 -0.000000
RightFoot 45.028259 6.532474 -0.778959
RightToeBase 38.411399 -0.000000 -0.000000
2220
root 3.665075 33.251825 -10.852495 -13.534073 0.365383 -28.804019
Spine 24.486494 -14.186604 25.612921
Head -23.139513 2.698256 -4.107893
LeftShoulder 4.849928 27.626447 32.382714
LeftArm 79.643729 19.012701 -64.503722
LeftForeArm -45.337444 0.000000 75.039554
LeftHand 6.337027 -0.000000 -18.046468
LeftHandThumb1 -26.253704 0.000000 33.147579
RightShoulder 6.460765 0.304222 -8.165036
RightArm 31.528495 -21.308502 62.484819
RightForeArm 21.690131 0.000000 38.995414
RightHand 13.694367 -0.000000 13.378626
RightHandThumb1 -24.326973 -0.000000 -32.862282
LeftUpLeg 0.966131 5.220101 23.637017
LeftLeg 22.330697 -0.000000 -0.000000
LeftFoot -15.682579 25.381826 -4.853617
LeftToeBase -13.588685 -0.000000 0.000000
RightUpLeg -119.533188 -5.168095 11.706570
RightLeg 130.212170 -0.000000 -0.000000
RightFoot 45.268621 6.542343 -0.496826
RightToeBase 38.161478 -0.000000 -0.000000
2221
root 3.685716 33.249329 -10.855382 -13.361244 0.474234 -28.666798
Spine 24.330677 -14.284264 25.608995
Head -23.236614 2.666633 -4.339507
LeftShoulder 4.842244 27.926303 32.310009
LeftArm 79.685786 18.965297 -64.380627
LeftForeArm -45.743892 -0.000000 74.983688
LeftHand 6.394973 -0.000000 -17.819132
LeftHandThumb1 -26.253704 0.000000 33.147579
RightShoulder 6.358120 0.001960 -8.139982
RightArm 31.121718 -21.033887 62.969055
RightForeArm 21.855176 0.000000 39.302590
RightHand 13.443179 -0.000000 13.798729
RightHandThumb1 -24.326973 -0.000000 -32.862282
LeftUpLeg 0.800274 5.291027 23.423957
LeftLeg 22.263492 -0.000000 -0.000000
LeftFoot -15.626901 25.363648 -4.787339
LeftToeBase -13.866446 -0.000000 0.000000
RightUpLeg -119.602603 -4.998342 11.917330
RightLeg 130.769324 -0.000000 -0.000000
RightFoot 45.588511 6.344161 -0.218078
RightToeBase 37.252862 -0.000000 -0.000000
2222
root 3.704933 33.245266 -10.855324 -13.209384 0.616041 -28.518804
Spine 24.177079 -14.431802 25.562423
Head -23.309391 2.645068 -4.566466
LeftShoulder 4.790779 28.066117 32.223007
LeftArm 79.580473 18.958698 -64.311021
LeftForeArm -46.097629 0.000000 74.887857
LeftHand 6.311021 0.000000 -17.873016
LeftHandThumb1 -26.253704 0.000000 33.147579
RightShoulder 6.190386 -0.261858 -8.078434
RightArm 30.818324 -21.068292 63.156250
RightForeArm 22.268398 -0.000000 39.772667
RightHand 12.976342 -0.000000 13.998247
RightHandThumb1 -24.326973 -0.000000 -32.862282
LeftUpLeg 0.663222 5.332138 23.195851
LeftLeg 22.165600 -0.000000 -0.000000
LeftFoot -15.618034 25.336673 -4.756055
LeftToeBase -13.827118 -0.000000 0.000000
RightUpLeg -119.635653 -4.909349 11.975013
RightLeg 131.362260 -0.000000 -0.000000
RightFoot 45.578622 6.157156 0.440168
RightToeBase 37.901484 -0.000000 -0.000000
2223
root 3.716464 33.244324 -10.850638 -13.098297 0.731358 -28.439420
Spine 24.055651 -14.595642 25.574372
Head -23.348053 2.615740 -4.822471
LeftShoulder 4.737490 28.260124 32.125376
LeftArm 79.539284 18.913266 -64.205523
LeftForeArm -46.494899 -0.000000 74.770529
LeftHand 6.110293 -0.000000 -17.968937
LeftHandThumb1 -26.253704 0.000000 33.147579
RightShoulder 5.937625 -0.515847 -8.017774
RightArm 30.675692 -21.394848 63.092046
RightForeArm 22.109453 -0.000000 40.449522
RightHand 12.605549 -0.000000 13.860215
RightHandThumb1 -24.326973 -0.000000 -32.862282
LeftUpLeg 0.588933 5.411790 23.074977
LeftLeg 22.051492 -0.000000 -0.000000
LeftFoot -15.657479 25.234461 -4.745142
LeftToeBase -13.697137 -0.000000 0.000000
RightUpLeg -119.607713 -4.774618 12.123832
RightLeg 132.019498 -0.000000 -0.000000
RightFoot 45.545027 6.110394 0.504984
RightToeBase 38.029253 -0.000000 -0.000000
2224
root 3.724004 33.243537 -10.844731 -13.006501 0.826468 -28.380179
Spine 23.968322 -14.789636 25.571075
Head -23.382714 2.654567 -5.074474
LeftShoulder 4.662219 28.304866 32.059414
LeftArm 79.335845 18.961378 -64.189705
LeftForeArm -46.938930 -0.000000 74.590617
LeftHand 6.112084 -0.000000 -18.139690
LeftHandThumb1 -26.253704 0.000000 33.147579
RightShoulder 5.663949 -0.753160 -7.945257
RightArm 30.659153 -21.889224 62.776213
RightForeArm 21.147992 -0.000000 41.374646
RightHand 12.078232 -0.000000 13.752382
RightHandThumb1 -24.326973 -0.000000 -32.862282
LeftUpLeg 0.540804 5.488933 22.990806
LeftLeg 21.939063 -0.000000 -0.000000
LeftFoot -15.676686 25.143268 -4.768858
LeftToeBase -13.796817 -0.000000 0.000000
RightUpLeg -119.548944 -4.647445 12.244997
RightLeg 132.723280 -0.000000 -0.000000
RightFoot 45.540312 6.060542 0.403834
RightToeBase 37.815924 -0.000000 -0.000000
2225
root 3.730804 33.243740 -10.837002 -12.943526 0.897213 -28.340143
Spine 23.917936 -14.948180 25.584445
Head -23.420599 2.675190 -5.289310
LeftShoulder 4.592090 28.471775 31.998642
LeftArm 79.299625 18.936863 -64.166600
LeftForeArm -47.548953 -0.000000 74.339572
LeftHand 5.887553 -0.000000 -18.561742
LeftHandThumb1 -26.253704 0.000000 33.147579
RightShoulder 5.353628 -0.867012 -7.916705
RightArm 30.608781 -22.326128 62.672664
RightForeArm 19.573542 -0.000000 42.164827
RightHand 11.905849 0.000000 13.616928
RightHandThumb1 -24.326973 -0.000000 -32.862282
LeftUpLeg 0.518997 5.590570 22.942013
LeftLeg 21.852743 -0.000000 -0.000000
LeftFoot -15.711161 25.029931 -4.785752
LeftToeBase -13.808112 -0.000000 0.000000
RightUpLeg -119.429092 -4.554364 12.286734
RightLeg 133.464130 -0.000000 -0.000000
RightFoot 45.529995 6.091297 0.323853
RightToeBase 37.253646 -0.000000 -0.000000
2226
root 3.736961 33.242061 -10.831875 -12.840522 0.988652 -28.292866
Spine 23.807901 -15.112732 25.597109
Head -23.417677 2.685308 -5.525749
LeftShoulder 4.537562 28.528957 31.965117
LeftArm 79.122246 19.005301 -64.125920
LeftForeArm -47.966252 -0.000000 74.167136
LeftHand 5.870352 -0.000000 -18.636592
LeftHandThumb1 -26.253704 0.000000 33.147579
RightShoulder 5.087248 -0.895355 -7.911622
RightArm 30.501883 -22.635327 62.752545
RightForeArm 18.102355 -0.000000 42.857403
RightHand 11.712992 0.000000 13.687931
RightHandThumb1 -24.326973 -0.000000 -32.862282
LeftUpLeg 0.426125 5.653976 22.870206
LeftLeg 21.807675 -0.000000 -0.000000
LeftFoot -15.757259 24.945399 -4.806656
LeftToeBase -13.744934 -0.000000 0.000000
RightUpLeg -119.363418 -4.458981 12.255316
RightLeg 134.228518 -0.000000 -0.000000
RightFoot 45.562040 6.460540 -0.005147
RightToeBase 37.458747 -0.000000 -0.000000
